<?xml version="1.0" encoding="utf-8"?>
<!-- Generator: Adobe Illustrator 18.0.0, SVG Export Plug-In . SVG Version: 6.00 Build 0)  -->
<!DOCTYPE svg PUBLIC "-//W3C//DTD SVG 1.1//EN" "http://www.w3.org/Graphics/SVG/1.1/DTD/svg11.dtd">
<svg version="1.1" id="Layer_1" xmlns="http://www.w3.org/2000/svg" xmlns:xlink="http://www.w3.org/1999/xlink" x="0px" y="0px"
	 viewBox="0 0 477 154" enable-background="new 0 0 477 154" xml:space="preserve">
<g opacity="0.3">
	<path d="M0,123.4v-0.2c0-16.9,12.7-30.8,30.7-30.8c9.2,0,15.2,2.7,20.4,6.7c1.1,0.8,2,2.3,2,4.2c0,2.9-2.3,5.1-5.2,5.1
		c-1.4,0-2.5-0.5-3.1-1c-4.1-3.3-8.5-5.4-14.2-5.4c-11.3,0-19.6,9.3-19.6,21v0.2c0,11.6,8.2,21.1,19.6,21.1c6.3,0,10.5-2,14.9-5.7
		c0.8-0.7,1.9-1.2,3.1-1.2c2.6,0,4.9,2.2,4.9,4.8c0,1.6-0.8,2.9-1.7,3.7c-5.6,4.9-12,8-21.6,8C12.9,154,0,140.5,0,123.4z"/>
	<path d="M64.7,95.6c0-2.8,2.2-5.1,5.1-5.1s5.2,2.3,5.2,5.1v52.7c0,2.9-2.3,5.1-5.2,5.1c-2.8,0-5.1-2.2-5.1-5.1V95.6z"/>
	<path d="M85.5,140v-0.2c0-9.7,7.6-14.4,18.5-14.4c5,0,8.6,0.8,12.1,1.9v-1.1c0-6.4-3.9-9.8-11.1-9.8c-3.9,0-7.1,0.7-9.9,1.8
		c-0.6,0.2-1.1,0.3-1.6,0.3c-2.4,0-4.3-1.9-4.3-4.2c0-1.9,1.3-3.5,2.8-4.1c4.2-1.6,8.6-2.6,14.4-2.6c6.7,0,11.7,1.8,14.9,5
		c3.3,3.2,4.8,8,4.8,13.9v22.1c0,2.8-2.2,4.9-5,4.9c-3,0-5-2-5-4.3v-1.7c-3.1,3.7-7.7,6.5-14.6,6.5C93,153.9,85.5,149,85.5,140z
		 M116.2,136.8v-3.1c-2.6-1-6.1-1.8-10.2-1.8c-6.6,0-10.5,2.8-10.5,7.5v0.2c0,4.3,3.8,6.8,8.8,6.8
		C111.1,146.4,116.2,142.5,116.2,136.8z"/>
	<path d="M136.6,148.4c-1.1-0.6-2-1.9-2-3.6c0-2.3,1.8-4.2,4.2-4.2c0.8,0,1.6,0.3,2.2,0.6c4.3,2.9,8.8,4.3,12.9,4.3
		c4.4,0,7-1.9,7-4.8v-0.2c0-3.5-4.8-4.7-10-6.3c-6.6-1.9-14-4.6-14-13.2V121c0-8.5,7.1-13.7,16-13.7c4.8,0,9.8,1.4,14.1,3.7
		c1.4,0.8,2.5,2.1,2.5,3.9c0,2.4-1.9,4.2-4.2,4.2c-0.8,0-1.4-0.2-2-0.5c-3.7-1.9-7.4-3.1-10.5-3.1c-4,0-6.3,1.9-6.3,4.4v0.2
		c0,3.3,4.8,4.7,10.1,6.4c6.5,2,13.9,5,13.9,13.1v0.2c0,9.4-7.3,14.1-16.7,14.1C148,153.8,141.8,152,136.6,148.4z"/>
	<path d="M178.4,148.4c-1.1-0.6-2-1.9-2-3.6c0-2.3,1.8-4.2,4.2-4.2c0.8,0,1.6,0.3,2.2,0.6c4.3,2.9,8.8,4.3,12.9,4.3
		c4.4,0,7-1.9,7-4.8v-0.2c0-3.5-4.8-4.7-10-6.3c-6.6-1.9-14-4.6-14-13.2V121c0-8.5,7.1-13.7,16-13.7c4.8,0,9.8,1.4,14.1,3.7
		c1.4,0.8,2.5,2.1,2.5,3.9c0,2.4-1.9,4.2-4.2,4.2c-0.8,0-1.4-0.2-2-0.5c-3.7-1.9-7.4-3.1-10.5-3.1c-4,0-6.3,1.9-6.3,4.4v0.2
		c0,3.3,4.8,4.7,10.1,6.4c6.5,2,13.9,5,13.9,13.1v0.2c0,9.4-7.3,14.1-16.7,14.1C189.7,153.8,183.5,152,178.4,148.4z"/>
	<path d="M215.9,100.2c-0.3-0.6-0.4-1.4-0.4-2c0-2.9,2.5-5.1,5.4-5.1c2.5,0,4.5,1.6,5.2,3.8l13.7,40.9L253.1,97
		c0.8-2.5,2.6-4.2,5.3-4.2h0.8c2.6,0,4.5,1.7,5.3,4.2l13.4,40.7l13.7-41c0.8-2.1,2.5-3.7,5.1-3.7c2.8,0,5.2,2.2,5.2,5
		c0,0.7-0.3,1.5-0.5,2.1l-17.6,49.3c-0.9,2.6-2.9,4.3-5.4,4.3h-1c-2.5,0-4.4-1.6-5.4-4.3l-13.3-38.8l-13.3,38.8
		c-0.9,2.7-2.9,4.3-5.4,4.3h-1c-2.5,0-4.4-1.6-5.4-4.3L215.9,100.2z"/>
	<path d="M304.3,140v-0.2c0-9.7,7.6-14.4,18.5-14.4c5,0,8.6,0.8,12.1,1.9v-1.1c0-6.4-3.9-9.8-11.1-9.8c-3.9,0-7.1,0.7-9.9,1.8
		c-0.6,0.2-1.1,0.3-1.6,0.3c-2.4,0-4.3-1.9-4.3-4.2c0-1.9,1.3-3.5,2.8-4.1c4.2-1.6,8.6-2.6,14.4-2.6c6.7,0,11.7,1.8,14.9,5
		c3.3,3.2,4.8,8,4.8,13.9v22.1c0,2.8-2.2,4.9-5,4.9c-3,0-5-2-5-4.3v-1.7c-3.1,3.7-7.7,6.5-14.6,6.5C311.8,153.9,304.3,149,304.3,140
		z M335,136.8v-3.1c-2.6-1-6.1-1.8-10.2-1.8c-6.6,0-10.5,2.8-10.5,7.5v0.2c0,4.3,3.8,6.8,8.8,6.8C329.9,146.4,335,142.5,335,136.8z"
		/>
	<path d="M357.7,95.6c0-2.8,2.2-5.1,5.1-5.1c2.9,0,5.2,2.3,5.2,5.1v52.7c0,2.9-2.3,5.1-5.2,5.1c-2.8,0-5.1-2.2-5.1-5.1V95.6z"/>
	<path d="M382,95.6c0-2.8,2.2-5.1,5.1-5.1c2.9,0,5.2,2.3,5.2,5.1v52.7c0,2.9-2.3,5.1-5.2,5.1c-2.8,0-5.1-2.2-5.1-5.1V95.6z"/>
</g>
<path opacity="0.3" d="M459.6,26.6l17.4-6L428.9,0l-48.1,20.7l17.2,5.9c-4.6,5.5-7.8,12.1-9.1,19.3c-1.7,9.5,0.1,19.4,5.1,27.7
	c3,5.1,7.2,9.5,12.3,12.9v26.9l24.9-14.7l18.3-10.9c19.2-11.4,25.6-36.3,14.2-55.6C462.8,30.5,461.1,28.4,459.6,26.6z M445.3,80.5
	L427,91.4l-12.2,7.2V81.7l-2.1-1.2c-4.8-2.8-8.7-6.7-11.4-11.2c-7.7-13.1-5.4-29.4,5.5-39.7l22.1,7.6l10-3.4
	c1.5,3.4,2.6,7.6,2.8,12.7l-4,10.4l7.8,1.8l0,0l0,0l7.8-1.8l-3.3-10c-0.1-6.3-1.4-11.6-3.2-15.9l4-1.4c1.8,1.9,4.5,4.9,5.7,6.9
	C465.6,51.7,460.5,71.5,445.3,80.5z"/>
</svg>
