<?xml version="1.0" encoding="utf-8"?>
<!-- Generator: Adobe Illustrator 18.0.0, SVG Export Plug-In . SVG Version: 6.00 Build 0)  -->
<!DOCTYPE svg PUBLIC "-//W3C//DTD SVG 1.1//EN" "http://www.w3.org/Graphics/SVG/1.1/DTD/svg11.dtd">
<svg version="1.1" id="Layer_1" xmlns="http://www.w3.org/2000/svg" xmlns:xlink="http://www.w3.org/1999/xlink" x="0px" y="0px"
	 viewBox="0 0 500 170" enable-background="new 0 0 500 170" xml:space="preserve">
<g>
	<path opacity="0.3" stroke="#FFFFFF" stroke-miterlimit="10" d="M11.5,131.5v-0.2c0-16.9,12.7-30.8,30.7-30.8
		c9.2,0,15.2,2.7,20.4,6.7c1.1,0.8,2,2.3,2,4.2c0,2.9-2.3,5.1-5.2,5.1c-1.4,0-2.5-0.5-3.1-1c-4.1-3.3-8.5-5.4-14.2-5.4
		c-11.3,0-19.6,9.3-19.6,21v0.2c0,11.6,8.2,21.1,19.6,21.1c6.3,0,10.5-2,14.9-5.7c0.8-0.7,1.9-1.2,3.1-1.2c2.6,0,4.9,2.2,4.9,4.8
		c0,1.6-0.8,2.9-1.7,3.7c-5.6,4.9-12,8-21.6,8C24.4,162.1,11.5,148.6,11.5,131.5z"/>
	<path opacity="0.3" stroke="#FFFFFF" stroke-miterlimit="10" d="M76.3,103.7c0-2.8,2.2-5.1,5.1-5.1c2.9,0,5.2,2.3,5.2,5.1v52.7
		c0,2.9-2.3,5.1-5.2,5.1c-2.8,0-5.1-2.2-5.1-5.1V103.7z"/>
	<path opacity="0.3" stroke="#FFFFFF" stroke-miterlimit="10" d="M97,148.2V148c0-9.7,7.6-14.4,18.5-14.4c5,0,8.6,0.8,12.1,1.9v-1.1
		c0-6.4-3.9-9.8-11.1-9.8c-3.9,0-7.1,0.7-9.9,1.8c-0.6,0.2-1.1,0.3-1.6,0.3c-2.4,0-4.3-1.9-4.3-4.2c0-1.9,1.3-3.5,2.8-4.1
		c4.2-1.6,8.6-2.6,14.4-2.6c6.7,0,11.7,1.8,14.9,5c3.3,3.2,4.8,8,4.8,13.9v22.1c0,2.8-2.2,4.9-5,4.9c-3,0-5-2-5-4.3v-1.7
		c-3.1,3.7-7.7,6.5-14.6,6.5C104.5,162,97,157.2,97,148.2z M127.8,144.9v-3.1c-2.6-1-6.1-1.8-10.2-1.8c-6.6,0-10.5,2.8-10.5,7.5v0.2
		c0,4.3,3.8,6.8,8.8,6.8C122.6,154.5,127.8,150.6,127.8,144.9z"/>
	<path opacity="0.3" stroke="#FFFFFF" stroke-miterlimit="10" d="M148.2,156.6c-1.1-0.6-2-1.9-2-3.6c0-2.3,1.8-4.2,4.2-4.2
		c0.8,0,1.6,0.3,2.2,0.6c4.3,2.9,8.8,4.3,12.9,4.3c4.4,0,7-1.9,7-4.8v-0.2c0-3.5-4.8-4.7-10-6.3c-6.6-1.9-14-4.6-14-13.2v-0.2
		c0-8.5,7.1-13.7,16-13.7c4.8,0,9.8,1.4,14.1,3.7c1.4,0.8,2.5,2.1,2.5,3.9c0,2.4-1.9,4.2-4.2,4.2c-0.8,0-1.4-0.2-2-0.5
		c-3.7-1.9-7.4-3.1-10.5-3.1c-4,0-6.3,1.9-6.3,4.4v0.2c0,3.3,4.8,4.7,10.1,6.4c6.5,2,13.9,5,13.9,13.1v0.2c0,9.4-7.3,14.1-16.7,14.1
		C159.5,161.9,153.3,160.1,148.2,156.6z"/>
	<path opacity="0.3" stroke="#FFFFFF" stroke-miterlimit="10" d="M189.9,156.6c-1.1-0.6-2-1.9-2-3.6c0-2.3,1.8-4.2,4.2-4.2
		c0.8,0,1.6,0.3,2.2,0.6c4.3,2.9,8.8,4.3,12.9,4.3c4.4,0,7-1.9,7-4.8v-0.2c0-3.5-4.8-4.7-10-6.3c-6.6-1.9-14-4.6-14-13.2v-0.2
		c0-8.5,7.1-13.7,16-13.7c4.8,0,9.8,1.4,14.1,3.7c1.4,0.8,2.5,2.1,2.5,3.9c0,2.4-1.9,4.2-4.2,4.2c-0.8,0-1.4-0.2-2-0.5
		c-3.7-1.9-7.4-3.1-10.5-3.1c-4,0-6.3,1.9-6.3,4.4v0.2c0,3.3,4.8,4.7,10.1,6.4c6.5,2,13.9,5,13.9,13.1v0.2c0,9.4-7.3,14.1-16.7,14.1
		C201.3,161.9,195.1,160.1,189.9,156.6z"/>
	<path opacity="0.3" stroke="#FFFFFF" stroke-miterlimit="10" d="M227.4,108.3c-0.3-0.6-0.4-1.4-0.4-2c0-2.9,2.5-5.1,5.4-5.1
		c2.5,0,4.5,1.6,5.2,3.8l13.7,40.9l13.4-40.7c0.8-2.5,2.6-4.2,5.3-4.2h0.8c2.6,0,4.5,1.7,5.3,4.2l13.4,40.7l13.7-41
		c0.8-2.1,2.5-3.7,5.1-3.7c2.8,0,5.2,2.2,5.2,5c0,0.7-0.3,1.5-0.5,2.1l-17.6,49.3c-0.9,2.6-2.9,4.3-5.4,4.3h-1
		c-2.5,0-4.4-1.6-5.4-4.3l-13.3-38.8l-13.3,38.8c-0.9,2.7-2.9,4.3-5.4,4.3h-1c-2.5,0-4.4-1.6-5.4-4.3L227.4,108.3z"/>
	<path opacity="0.3" stroke="#FFFFFF" stroke-miterlimit="10" d="M315.8,148.2V148c0-9.7,7.6-14.4,18.5-14.4c5,0,8.6,0.8,12.1,1.9
		v-1.1c0-6.4-3.9-9.8-11.1-9.8c-3.9,0-7.1,0.7-9.9,1.8c-0.6,0.2-1.1,0.3-1.6,0.3c-2.4,0-4.3-1.9-4.3-4.2c0-1.9,1.3-3.5,2.8-4.1
		c4.2-1.6,8.6-2.6,14.4-2.6c6.7,0,11.7,1.8,14.9,5c3.3,3.2,4.8,8,4.8,13.9v22.1c0,2.8-2.2,4.9-5,4.9c-3,0-5-2-5-4.3v-1.7
		c-3.1,3.7-7.7,6.5-14.6,6.5C323.3,162,315.8,157.2,315.8,148.2z M346.6,144.9v-3.1c-2.6-1-6.1-1.8-10.2-1.8
		c-6.6,0-10.5,2.8-10.5,7.5v0.2c0,4.3,3.8,6.8,8.8,6.8C341.4,154.5,346.6,150.6,346.6,144.9z"/>
	<path opacity="0.3" stroke="#FFFFFF" stroke-miterlimit="10" d="M369.3,103.7c0-2.8,2.2-5.1,5.1-5.1c2.9,0,5.2,2.3,5.2,5.1v52.7
		c0,2.9-2.3,5.1-5.2,5.1c-2.8,0-5.1-2.2-5.1-5.1V103.7z"/>
	<path opacity="0.3" stroke="#FFFFFF" stroke-miterlimit="10" d="M393.6,103.7c0-2.8,2.2-5.1,5.1-5.1c2.9,0,5.2,2.3,5.2,5.1v52.7
		c0,2.9-2.3,5.1-5.2,5.1c-2.8,0-5.1-2.2-5.1-5.1V103.7z"/>
</g>
<path fill="#7ACFE7" d="M471.1,34.8l17.4-6L440.4,8.1l-48.1,20.7l17.2,5.9c-4.6,5.5-7.8,12.1-9.1,19.3c-1.7,9.5,0.1,19.4,5.1,27.7
	c3,5.1,7.2,9.5,12.3,12.9v26.9l24.9-14.7l18.3-10.9c19.2-11.4,25.6-36.3,14.2-55.6C474.3,38.6,472.6,36.5,471.1,34.8z M456.8,88.6
	l-18.3,10.9l-12.2,7.2V89.9l-2.1-1.2c-4.8-2.8-8.7-6.7-11.4-11.2c-7.7-13.1-5.4-29.4,5.5-39.7l22.1,7.6l10-3.4
	c1.5,3.4,2.6,7.6,2.8,12.7l-4,10.4l7.8,1.8l0,0l0,0l7.8-1.8l-3.3-10c-0.1-6.3-1.4-11.6-3.2-15.9l4-1.4c1.8,1.9,4.5,4.9,5.7,6.9
	C477.1,59.9,472,79.6,456.8,88.6z"/>
<g>
	<g>
		<path fill="#FFFFFF" d="M109.7-64.6c1.9,0,1.9-3,0-3C107.7-67.6,107.7-64.6,109.7-64.6L109.7-64.6z"/>
	</g>
</g>
<g>
	<g>
		<path fill="#FFFFFF" d="M90.3,92.7c1.9,0,1.9-3,0-3C88.4,89.7,88.4,92.7,90.3,92.7L90.3,92.7z"/>
	</g>
</g>
</svg>
